<svg width="1084" height="259" xmlns="http://www.w3.org/2000/svg" xmlns:xlink="http://www.w3.org/1999/xlink" xml:space="preserve" overflow="hidden"><defs><linearGradient x1="795.98" y1="481.735" x2="1762.49" y2="481.735" gradientUnits="userSpaceOnUse" spreadMethod="reflect" id="fill0"><stop offset="0" stop-color="#FF0000"/><stop offset="0.00657895" stop-color="#FF0100"/><stop offset="0.0131579" stop-color="#FF0301"/><stop offset="0.0197368" stop-color="#FF0501"/><stop offset="0.0263158" stop-color="#FF0702"/><stop offset="0.0328947" stop-color="#FF0903"/><stop offset="0.0394737" stop-color="#FF0B03"/><stop offset="0.0460526" stop-color="#FF0C04"/><stop offset="0.0526316" stop-color="#FF0E04"/><stop offset="0.0592105" stop-color="#FF1005"/><stop offset="0.0657895" stop-color="#FF1206"/><stop offset="0.0723684" stop-color="#FF1406"/><stop offset="0.0789474" stop-color="#FF1507"/><stop offset="0.0855263" stop-color="#FF1707"/><stop offset="0.0921053" stop-color="#FF1908"/><stop offset="0.0986842" stop-color="#FF1B09"/><stop offset="0.105263" stop-color="#FF1C09"/><stop offset="0.111842" stop-color="#FF1E0A"/><stop offset="0.118421" stop-color="#FF200A"/><stop offset="0.125" stop-color="#FF210B"/><stop offset="0.131579" stop-color="#FF230B"/><stop offset="0.138158" stop-color="#FF250C"/><stop offset="0.144737" stop-color="#FF260C"/><stop offset="0.151316" stop-color="#FF280D"/><stop offset="0.157895" stop-color="#FF2A0E"/><stop offset="0.164474" stop-color="#FF2B0E"/><stop offset="0.171053" stop-color="#FF2D0F"/><stop offset="0.177632" stop-color="#FF2E0F"/><stop offset="0.184211" stop-color="#FF3010"/><stop offset="0.190789" stop-color="#FF3210"/><stop offset="0.197368" stop-color="#FF3311"/><stop offset="0.203947" stop-color="#FF3511"/><stop offset="0.210526" stop-color="#FF3612"/><stop offset="0.217105" stop-color="#FF3812"/><stop offset="0.223684" stop-color="#FF3913"/><stop offset="0.230263" stop-color="#FF3B13"/><stop offset="0.236842" stop-color="#FF3C14"/><stop offset="0.243421" stop-color="#FF3E14"/><stop offset="0.25" stop-color="#FF3F15"/><stop offset="0.256579" stop-color="#FF4115"/><stop offset="0.263158" stop-color="#FF4216"/><stop offset="0.269737" stop-color="#FF4416"/><stop offset="0.276316" stop-color="#FF4517"/><stop offset="0.282895" stop-color="#FF4617"/><stop offset="0.289474" stop-color="#FF4818"/><stop offset="0.296053" stop-color="#FF4918"/><stop offset="0.302632" stop-color="#FF4B19"/><stop offset="0.309211" stop-color="#FF4C19"/><stop offset="0.315789" stop-color="#FF4D19"/><stop offset="0.322368" stop-color="#FF4F1A"/><stop offset="0.328947" stop-color="#FF501A"/><stop offset="0.335526" stop-color="#FF511B"/><stop offset="0.342105" stop-color="#FF531B"/><stop offset="0.348684" stop-color="#FF541C"/><stop offset="0.355263" stop-color="#FF551C"/><stop offset="0.361842" stop-color="#FF571D"/><stop offset="0.368421" stop-color="#FF581D"/><stop offset="0.375" stop-color="#FF591D"/><stop offset="0.381579" stop-color="#FF5A1E"/><stop offset="0.388158" stop-color="#FF5C1E"/><stop offset="0.394737" stop-color="#FF5D1F"/><stop offset="0.401316" stop-color="#FF5E1F"/><stop offset="0.407895" stop-color="#FF5F1F"/><stop offset="0.414474" stop-color="#FF6020"/><stop offset="0.421053" stop-color="#FF6220"/><stop offset="0.427632" stop-color="#FF6321"/><stop offset="0.434211" stop-color="#FF6421"/><stop offset="0.440789" stop-color="#FF6521"/><stop offset="0.447368" stop-color="#FF6622"/><stop offset="0.453947" stop-color="#FF6722"/><stop offset="0.460526" stop-color="#FF6822"/><stop offset="0.467105" stop-color="#FF6923"/><stop offset="0.473684" stop-color="#FF6B23"/><stop offset="0.480263" stop-color="#FF6C24"/><stop offset="0.486842" stop-color="#FF6D24"/><stop offset="0.493421" stop-color="#FF6E24"/><stop offset="0.5" stop-color="#FF6F25"/><stop offset="0.506579" stop-color="#FF7025"/><stop offset="0.513158" stop-color="#FF7125"/><stop offset="0.519737" stop-color="#FF7226"/><stop offset="0.526316" stop-color="#FF7326"/><stop offset="0.532895" stop-color="#FF7426"/><stop offset="0.539474" stop-color="#FF7527"/><stop offset="0.546053" stop-color="#FF7627"/><stop offset="0.552632" stop-color="#FF7727"/><stop offset="0.559211" stop-color="#FF7828"/><stop offset="0.565789" stop-color="#FF7828"/><stop offset="0.572368" stop-color="#FF7928"/><stop offset="0.578947" stop-color="#FF7A28"/><stop offset="0.585526" stop-color="#FF7B29"/><stop offset="0.592105" stop-color="#FF7C29"/><stop offset="0.598684" stop-color="#FF7D29"/><stop offset="0.605263" stop-color="#FF7E2A"/><stop offset="0.611842" stop-color="#FF7F2A"/><stop offset="0.618421" stop-color="#FF7F2A"/><stop offset="0.625" stop-color="#FF802A"/><stop offset="0.631579" stop-color="#FF812B"/><stop offset="0.638158" stop-color="#FF822B"/><stop offset="0.644737" stop-color="#FF832B"/><stop offset="0.651316" stop-color="#FF832B"/><stop offset="0.657895" stop-color="#FF842C"/><stop offset="0.664474" stop-color="#FF852C"/><stop offset="0.671053" stop-color="#FF852C"/><stop offset="0.677632" stop-color="#FF862C"/><stop offset="0.684211" stop-color="#FF872D"/><stop offset="0.690789" stop-color="#FF882D"/><stop offset="0.697368" stop-color="#FF882D"/><stop offset="0.703947" stop-color="#FF892D"/><stop offset="0.710526" stop-color="#FF8A2E"/><stop offset="0.717105" stop-color="#FF8A2E"/><stop offset="0.723684" stop-color="#FF8B2E"/><stop offset="0.730263" stop-color="#FF8B2E"/><stop offset="0.736842" stop-color="#FF8C2E"/><stop offset="0.743421" stop-color="#FF8D2F"/><stop offset="0.75" stop-color="#FF8D2F"/><stop offset="0.756579" stop-color="#FF8E2F"/><stop offset="0.763158" stop-color="#FF8E2F"/><stop offset="0.769737" stop-color="#FF8F2F"/><stop offset="0.776316" stop-color="#FF8F2F"/><stop offset="0.782895" stop-color="#FF9030"/><stop offset="0.789474" stop-color="#FF9030"/><stop offset="0.796053" stop-color="#FF9130"/><stop offset="0.802632" stop-color="#FF9130"/><stop offset="0.809211" stop-color="#FF9230"/><stop offset="0.815789" stop-color="#FF9230"/><stop offset="0.822368" stop-color="#FF9331"/><stop offset="0.828947" stop-color="#FF9331"/><stop offset="0.835526" stop-color="#FF9331"/><stop offset="0.842105" stop-color="#FF9431"/><stop offset="0.848684" stop-color="#FF9431"/><stop offset="0.855263" stop-color="#FF9431"/><stop offset="0.861842" stop-color="#FF9531"/><stop offset="0.868421" stop-color="#FF9531"/><stop offset="0.875" stop-color="#FF9531"/><stop offset="0.881579" stop-color="#FF9632"/><stop offset="0.888158" stop-color="#FF9632"/><stop offset="0.894737" stop-color="#FF9632"/><stop offset="0.901316" stop-color="#FF9732"/><stop offset="0.907895" stop-color="#FF9732"/><stop offset="0.914474" stop-color="#FF9732"/><stop offset="0.921053" stop-color="#FF9732"/><stop offset="0.927632" stop-color="#FF9732"/><stop offset="0.934211" stop-color="#FF9832"/><stop offset="0.940789" stop-color="#FF9832"/><stop offset="0.947368" stop-color="#FF9832"/><stop offset="0.953947" stop-color="#FF9832"/><stop offset="0.960526" stop-color="#FF9832"/><stop offset="0.967105" stop-color="#FF9832"/><stop offset="0.973684" stop-color="#FF9832"/><stop offset="0.980263" stop-color="#FF9832"/><stop offset="0.986842" stop-color="#FF9832"/><stop offset="0.993421" stop-color="#FF9832"/><stop offset="1" stop-color="#FF9933"/></linearGradient></defs><g transform="translate(-737 -352)"><path d="M1186.89 495.088 1186.89 537.198 1216.32 537.198C1227.78 537.198 1235.05 536.876 1238.13 536.231 1242.86 535.372 1246.71 533.277 1249.68 529.947 1252.65 526.617 1254.14 522.159 1254.14 516.573 1254.14 511.846 1252.99 507.836 1250.7 504.542 1248.41 501.247 1245.09 498.848 1240.76 497.344 1236.43 495.84 1227.03 495.088 1212.56 495.088ZM1499.66 471.67C1491.78 471.67 1485.15 474.678 1479.78 480.694 1474.41 486.71 1471.73 495.375 1471.73 506.69 1471.73 518.005 1474.41 526.67 1479.78 532.686 1485.15 538.702 1491.78 541.71 1499.66 541.71 1507.53 541.71 1514.14 538.702 1519.47 532.686 1524.81 526.67 1527.48 517.933 1527.48 506.475 1527.48 495.303 1524.81 486.71 1519.47 480.694 1514.14 474.678 1507.53 471.67 1499.66 471.67ZM1364.66 471.67C1356.78 471.67 1350.15 474.678 1344.78 480.694 1339.41 486.71 1336.73 495.375 1336.73 506.69 1336.73 518.005 1339.41 526.67 1344.78 532.686 1350.15 538.702 1356.78 541.71 1364.66 541.71 1372.53 541.71 1379.14 538.702 1384.47 532.686 1389.81 526.67 1392.48 517.933 1392.48 506.475 1392.48 495.303 1389.81 486.71 1384.47 480.694 1379.14 474.678 1372.53 471.67 1364.66 471.67ZM1092.77 449.649 1122.96 449.649 1122.96 563.731 1092.77 563.731ZM1624.34 447.071C1639.96 447.071 1651.56 449.613 1659.15 454.698 1666.74 459.782 1671.97 467.302 1674.83 477.256L1646.36 482.52C1645.15 478.08 1642.84 474.678 1639.44 472.315 1636.03 469.952 1631.18 468.77 1624.88 468.77 1616.93 468.77 1611.24 469.88 1607.8 472.1 1605.51 473.676 1604.36 475.717 1604.36 478.223 1604.36 480.372 1605.37 482.198 1607.37 483.702 1610.09 485.707 1619.49 488.536 1635.57 492.188 1651.65 495.84 1662.87 500.316 1669.25 505.616 1675.55 510.987 1678.7 518.471 1678.7 528.067 1678.7 538.523 1674.33 547.51 1665.59 555.03 1656.86 562.549 1643.93 566.309 1626.81 566.309 1611.27 566.309 1598.97 563.158 1589.91 556.856 1580.86 550.554 1574.93 541.996 1572.14 531.182L1602.43 526.563C1603.72 532.435 1606.33 536.893 1610.27 539.937 1614.21 542.981 1619.72 544.503 1626.81 544.503 1634.62 544.503 1640.49 543.07 1644.43 540.206 1647.08 538.2 1648.41 535.515 1648.41 532.149 1648.41 529.857 1647.69 527.96 1646.26 526.456 1644.75 525.023 1641.39 523.698 1636.16 522.481 1611.81 517.11 1596.38 512.204 1589.86 507.764 1580.84 501.605 1576.33 493.047 1576.33 482.09 1576.33 472.208 1580.23 463.9 1588.03 457.169 1595.84 450.437 1607.94 447.071 1624.34 447.071ZM1499.55 447.071C1516.81 447.071 1530.95 452.675 1541.98 463.882 1553.01 475.09 1558.52 489.252 1558.52 506.368 1558.52 523.627 1552.95 537.932 1541.82 549.283 1530.68 560.634 1516.66 566.309 1499.76 566.309 1489.31 566.309 1479.33 563.946 1469.85 559.219 1460.36 554.493 1453.14 547.564 1448.2 538.433 1443.26 529.302 1440.79 518.184 1440.79 505.079 1440.79 495.053 1443.26 485.349 1448.2 475.967 1453.14 466.586 1460.14 459.424 1469.2 454.483 1478.26 449.542 1488.38 447.071 1499.55 447.071ZM1364.55 447.071C1381.81 447.071 1395.95 452.675 1406.98 463.882 1418.01 475.09 1423.52 489.252 1423.52 506.368 1423.52 523.627 1417.95 537.932 1406.82 549.283 1395.68 560.634 1381.66 566.309 1364.76 566.309 1354.31 566.309 1344.33 563.946 1334.85 559.219 1325.36 554.493 1318.14 547.564 1313.2 538.433 1308.26 529.302 1305.79 518.184 1305.79 505.079 1305.79 495.053 1308.26 485.349 1313.2 475.967 1318.14 466.586 1325.14 459.424 1334.2 454.483 1343.26 449.542 1353.38 447.071 1364.55 447.071ZM873.753 442.989 852.484 501.426 895.453 501.426ZM1186.89 432.461 1186.89 468.878 1207.73 468.878C1220.12 468.878 1227.82 468.698 1230.83 468.34 1236.27 467.696 1240.55 465.816 1243.66 462.701 1246.78 459.586 1248.34 455.486 1248.34 450.401 1248.34 445.531 1246.99 441.574 1244.31 438.531 1241.62 435.487 1237.63 433.643 1232.33 432.999 1229.18 432.641 1220.12 432.461 1205.15 432.461ZM1736.46 409.366 1736.46 449.649 1757.09 449.649 1757.09 473.711 1736.46 473.711 1736.46 519.688C1736.46 528.998 1736.66 534.423 1737.05 535.962 1737.44 537.502 1738.34 538.773 1739.74 539.776 1741.13 540.779 1742.83 541.28 1744.84 541.28 1747.63 541.28 1751.68 540.313 1756.98 538.379L1759.56 561.797C1752.54 564.805 1744.59 566.309 1735.71 566.309 1730.27 566.309 1725.36 565.396 1720.99 563.57 1716.62 561.744 1713.42 559.38 1711.38 556.48 1709.34 553.58 1707.92 549.659 1707.13 544.717 1706.49 541.208 1706.17 534.118 1706.17 523.448L1706.17 473.711 1692.31 473.711 1692.31 449.649 1706.17 449.649 1706.17 426.983ZM1155.09 406.251 1218.04 406.251C1230.5 406.251 1239.8 406.77 1245.92 407.808 1252.04 408.847 1257.52 411.013 1262.35 414.307 1267.19 417.601 1271.22 421.988 1274.44 427.466 1277.66 432.945 1279.27 439.086 1279.27 445.889 1279.27 453.266 1277.29 460.033 1273.31 466.192 1269.34 472.351 1263.95 476.97 1257.14 480.049 1266.74 482.842 1274.12 487.605 1279.27 494.336 1284.43 501.068 1287.01 508.982 1287.01 518.077 1287.01 525.238 1285.34 532.203 1282.01 538.97 1278.68 545.738 1274.13 551.145 1268.37 555.191 1262.6 559.237 1255.5 561.726 1247.05 562.657 1241.75 563.23 1228.96 563.588 1208.7 563.731L1155.09 563.731ZM1092.77 406.251 1122.96 406.251 1122.96 434.18 1092.77 434.18ZM969.697 406.251 999.882 406.251 999.882 489.825 1035.22 449.649 1072.39 449.649 1033.4 491.329 1075.18 563.731 1042.64 563.731 1013.95 512.491 999.882 527.208 999.882 563.731 969.697 563.731ZM857.318 406.251 890.941 406.251 953.997 563.731 919.408 563.731 905.658 527.96 842.708 527.96 829.71 563.731 795.98 563.731Z" stroke="#80350E" stroke-width="5" stroke-linejoin="round" stroke-miterlimit="10" fill="url(#fill0)" fill-rule="evenodd"/><text fill="#000000" fill-opacity="0" font-family="Arial,Arial_MSFontService,sans-serif" font-size="160.059" x="795.98" y="546.302">AkiBoost</text></g></svg>